<svg width="42" height="879" viewBox="0 0 42 879" fill="none" xmlns="http://www.w3.org/2000/svg">
<path d="M41.5001 439.157C41.5001 469.642 22.9199 494.355 8.96454e-05 494.355C8.4877e-05 383.959 0 469.642 0 439.157C0 408.672 9.44138e-05 494.355 8.96454e-05 383.959C22.9199 383.959 41.5001 408.672 41.5001 439.157Z" fill="white"/>
<path d="M10 342.56C10 348.004 5.52286 352.417 2.16013e-05 352.417C2.04522e-05 332.703 0 348.004 0 342.56C0 337.116 2.27503e-05 352.417 2.16013e-05 332.703C5.52286 332.703 10 337.116 10 342.56Z" fill="white"/>
<path d="M10 312.333C10 317.776 5.52286 322.189 2.16013e-05 322.189C2.04522e-05 302.476 0 317.776 0 312.333C0 306.889 2.27503e-05 322.189 2.16013e-05 302.476C5.52286 302.476 10 306.889 10 312.333Z" fill="white"/>
<path d="M10 282.105C10 287.549 5.52286 291.962 2.16013e-05 291.962C2.04522e-05 272.248 0 287.549 0 282.105C0 276.661 2.27503e-05 291.962 2.16013e-05 272.248C5.52286 272.248 10 276.661 10 282.105Z" fill="white"/>
<path d="M10 251.877C10 257.321 5.52286 261.734 2.16013e-05 261.734C2.04522e-05 242.021 0 257.321 0 251.877C0 246.434 2.27503e-05 261.734 2.16013e-05 242.021C5.52286 242.021 10 246.434 10 251.877Z" fill="white"/>
<path d="M10 221.65C10 227.094 5.52286 231.507 2.16013e-05 231.507C2.04522e-05 211.793 0 227.094 0 221.65C0 216.206 2.27503e-05 231.507 2.16013e-05 211.793C5.52286 211.793 10 216.206 10 221.65Z" fill="white"/>
<path d="M10 191.422C10 196.866 5.52286 201.279 2.16013e-05 201.279C2.04522e-05 181.565 0 196.866 0 191.422C0 185.978 2.27503e-05 201.279 2.16013e-05 181.565C5.52286 181.565 10 185.978 10 191.422Z" fill="white"/>
<path d="M10 161.195C10 166.638 5.52286 171.051 2.16013e-05 171.051C2.04522e-05 151.338 0 166.638 0 161.195C0 155.751 2.27503e-05 171.051 2.16013e-05 151.338C5.52286 151.338 10 155.751 10 161.195Z" fill="white"/>
<path d="M10 130.967C10 136.411 5.52286 140.824 2.16013e-05 140.824C2.04522e-05 121.11 0 136.411 0 130.967C0 125.523 2.27503e-05 140.824 2.16013e-05 121.11C5.52286 121.11 10 125.523 10 130.967Z" fill="white"/>
<path d="M10 100.739C10 106.183 5.52286 110.596 2.16013e-05 110.596C2.04522e-05 90.8825 0 106.183 0 100.739C0 95.2956 2.27503e-05 110.596 2.16013e-05 90.8825C5.52286 90.8825 10 95.2956 10 100.739Z" fill="white"/>
<path d="M10 70.5117C10 75.9555 5.52286 80.3686 2.16013e-05 80.3686C2.04522e-05 60.6549 0 75.9555 0 70.5117C0 65.068 2.27503e-05 80.3686 2.16013e-05 60.6549C5.52286 60.6549 10 65.068 10 70.5117Z" fill="white"/>
<path d="M10 40.2841C10 45.7279 5.52286 50.141 2.16013e-05 50.141C2.04522e-05 30.4273 0 45.7279 0 40.2841C0 34.8404 2.27503e-05 50.141 2.16013e-05 30.4273C5.52286 30.4273 10 34.8404 10 40.2841Z" fill="white"/>
<path d="M10 10.0565C10 15.5003 5.52286 19.9134 2.16013e-05 19.9134C2.04522e-05 0.199707 0 15.5003 0 10.0565C0 4.61276 2.27503e-05 19.9134 2.16013e-05 0.199707C5.52286 0.199707 10 4.61276 10 10.0565Z" fill="white"/>
<path d="M10 868.258C10 873.701 5.52286 878.115 2.16013e-05 878.115C2.04522e-05 858.401 0 873.701 0 868.258C0 862.814 2.27503e-05 878.115 2.16013e-05 858.401C5.52286 858.401 10 862.814 10 868.258Z" fill="white"/>
<path d="M10 838.03C10 843.474 5.52286 847.887 2.16013e-05 847.887C2.04522e-05 828.173 0 843.474 0 838.03C0 832.586 2.27503e-05 847.887 2.16013e-05 828.173C5.52286 828.173 10 832.586 10 838.03Z" fill="white"/>
<path d="M10 807.803C10 813.246 5.52286 817.659 2.16013e-05 817.659C2.04522e-05 797.946 0 813.246 0 807.803C0 802.359 2.27503e-05 817.659 2.16013e-05 797.946C5.52286 797.946 10 802.359 10 807.803Z" fill="white"/>
<path d="M10 777.575C10 783.019 5.52286 787.432 2.16013e-05 787.432C2.04522e-05 767.718 0 783.019 0 777.575C0 772.131 2.27503e-05 787.432 2.16013e-05 767.718C5.52286 767.718 10 772.131 10 777.575Z" fill="white"/>
<path d="M10 747.347C10 752.791 5.52286 757.204 2.16013e-05 757.204C2.04522e-05 737.49 0 752.791 0 747.347C0 741.904 2.27503e-05 757.204 2.16013e-05 737.49C5.52286 737.49 10 741.904 10 747.347Z" fill="white"/>
<path d="M10 717.12C10 722.563 5.52286 726.977 2.16013e-05 726.977C2.04522e-05 707.263 0 722.563 0 717.12C0 711.676 2.27503e-05 726.977 2.16013e-05 707.263C5.52286 707.263 10 711.676 10 717.12Z" fill="white"/>
<path d="M10 686.892C10 692.336 5.52286 696.749 2.16013e-05 696.749C2.04522e-05 677.035 0 692.336 0 686.892C0 681.448 2.27503e-05 696.749 2.16013e-05 677.035C5.52286 677.035 10 681.448 10 686.892Z" fill="white"/>
<path d="M10 656.664C10 662.108 5.52286 666.521 2.16013e-05 666.521C2.04522e-05 646.808 0 662.108 0 656.664C0 651.221 2.27503e-05 666.521 2.16013e-05 646.808C5.52286 646.808 10 651.221 10 656.664Z" fill="white"/>
<path d="M10 626.437C10 631.881 5.52286 636.294 2.16013e-05 636.294C2.04522e-05 616.58 0 631.881 0 626.437C0 620.993 2.27503e-05 636.294 2.16013e-05 616.58C5.52286 616.58 10 620.993 10 626.437Z" fill="white"/>
<path d="M10 596.209C10 601.653 5.52286 606.066 2.16013e-05 606.066C2.04522e-05 586.352 0 601.653 0 596.209C0 590.765 2.27503e-05 606.066 2.16013e-05 586.352C5.52286 586.352 10 590.765 10 596.209Z" fill="white"/>
<path d="M10 565.982C10 571.425 5.52286 575.838 2.16013e-05 575.838C2.04522e-05 556.125 0 571.425 0 565.982C0 560.538 2.27503e-05 575.838 2.16013e-05 556.125C5.52286 556.125 10 560.538 10 565.982Z" fill="white"/>
<path d="M10 535.754C10 541.198 5.52286 545.611 2.16013e-05 545.611C2.04522e-05 525.897 0 541.198 0 535.754C0 530.31 2.27503e-05 545.611 2.16013e-05 525.897C5.52286 525.897 10 530.31 10 535.754Z" fill="white"/>
</svg>
